<svg xmlns="http://www.w3.org/2000/svg" width="682.667" height="682.667" version="1.0" viewBox="0 0 512 512"><path d="M58.6 17.6C40.6 21.9 26.1 35 19 53l-2.5 6.5-.3 119c-.2 85.3 0 120.7.8 125 2.8 14.9 14.5 30.9 27.9 37.9 12.5 6.6 12.9 6.6 68.8 6.6H164v50.3c0 54.6.1 55.8 5.7 67.5 3.9 8.2 16.2 20.3 24.4 24.2 13.8 6.4 6.7 6.1 138.5 5.8l119.9-.3 5.9-2.3c16.6-6.3 28.1-17.6 34.5-34l2.6-6.7.3-119c.2-85.3 0-120.7-.8-125-3.8-19.9-20.7-37.8-40.7-43-4.7-1.2-14.7-1.5-56-1.5H348v-50.3c0-54.7-.1-55.8-5.8-67.5-3.9-8.1-15.9-20-24.2-24-13.5-6.5-6.6-6.2-136-6.1-98.1.1-118.5.3-123.4 1.5zm241.7 37c3.8 1.9 7.4 5.1 9 7.9.9 1.4 1.3 21.1 1.7 70l.5 68 68.2.5 68.1.5 3.8 3c2 1.7 4.5 4.6 5.5 6.5 1.8 3.3 1.9 8.4 1.9 118.3 0 101-.2 115.2-1.5 118.4-2.1 5-4.2 7.2-9 9.4-3.8 1.8-9.5 1.9-118.8 1.9-103.8 0-115.1-.2-118-1.6-3.8-1.9-7.4-5.1-9-7.9-.9-1.4-1.3-21.1-1.7-70l-.5-68-68-.5c-75.9-.6-70.3 0-76.2-7.7l-2.8-3.6V65.4l2.8-4.3c1.8-2.7 4.4-5 7-6.2 4-1.8 8.4-1.9 119-1.9 103.8 0 115.1.2 118 1.6z"/><path d="M131.9 111.3c-9.5 4-14.8 8.9-20 18.7l-2.4 4.5v92l2.8 5.7c3.8 7.7 9.6 13.4 17.5 17.1l6.7 3.2 45.5.3 45.6.3 15.7 15.7 15.6 15.7.3 45.5.3 45.5 3.1 6.5c3.7 7.8 9.5 14 16.6 17.7l5.3 2.8H331c46.5 0 46.5 0 51.2-2.3 7.4-3.7 13.4-9.6 17-17l3.3-6.7v-96l-3.2-6.6c-3.9-7.9-10.2-14-18.1-17.7l-5.7-2.7-42-.3c-32.7-.2-43.1.1-47 1.1l-5 1.4-12.6-12.4-12.6-12.4 1.4-5.2c1.1-4.1 1.3-14.2 1.1-47.2l-.3-42-2.7-5.7c-3.5-7.6-9.5-13.8-17-17.9l-6.3-3.4-47.5-.2-47.5-.3-5.6 2.3zM221 181v36h-75v-72h75v36zm146 147.5V366h-72v-75h72v37.5z"/></svg>