<?xml version="1.0" standalone="no"?>
<!DOCTYPE svg PUBLIC "-//W3C//DTD SVG 20010904//EN"
 "http://www.w3.org/TR/2001/REC-SVG-20010904/DTD/svg10.dtd">
<svg version="1.0" xmlns="http://www.w3.org/2000/svg"
 width="128.000000pt" height="128.000000pt" viewBox="0 0 128.000000 128.000000"
 preserveAspectRatio="xMidYMid meet">
<metadata>
Created by potrace 1.14, written by Peter Selinger 2001-2017
</metadata>
<g transform="translate(0.000000,128.000000) scale(0.100000,-0.100000)"
fill="#000000" stroke="none">
<path d="M112 1220 c-18 -11 -41 -34 -52 -52 -19 -31 -20 -51 -20 -343 0 -281
2 -313 18 -344 32 -59 68 -71 219 -71 l133 0 0 -133 c0 -151 12 -187 71 -219
31 -17 58 -18 356 -16 l322 3 30 29 c51 49 52 58 49 399 l-3 317 -38 37 -37
38 -144 3 -145 3 -3 144 c-3 137 -4 145 -28 170 -51 54 -55 55 -387 55 -290 0
-310 -1 -341 -20z m650 -87 c16 -14 18 -34 18 -185 l0 -168 167 0 c141 0 169
-3 185 -17 17 -15 18 -38 18 -306 0 -256 -2 -293 -17 -309 -15 -17 -38 -18
-309 -18 -253 0 -295 2 -308 16 -13 13 -16 44 -16 185 l0 169 -167 0 c-141 0
-169 3 -185 17 -17 15 -18 38 -18 306 0 256 2 293 17 309 15 17 38 18 306 18
256 0 293 -2 309 -17z"/>
<path d="M321 996 c-42 -23 -50 -53 -51 -174 0 -112 0 -114 29 -143 29 -29 30
-29 148 -29 l119 0 42 -43 42 -43 0 -118 c0 -117 0 -118 30 -148 l30 -30 125
4 c169 4 169 4 173 169 6 195 -10 212 -194 208 -112 -2 -116 -2 -141 24 -26
25 -26 29 -24 141 3 127 -8 163 -54 184 -36 17 -243 15 -274 -2z m229 -166 l0
-90 -95 0 -95 0 0 83 c0 46 3 87 7 90 3 4 46 7 95 7 l88 0 0 -90z m368 -372
l-3 -93 -87 -3 -88 -3 0 96 0 95 90 0 91 0 -3 -92z"/>
</g>
</svg>
