<?xml version="1.0" standalone="no"?>
<!DOCTYPE svg PUBLIC "-//W3C//DTD SVG 20010904//EN"
 "http://www.w3.org/TR/2001/REC-SVG-20010904/DTD/svg10.dtd">
<svg version="1.0" xmlns="http://www.w3.org/2000/svg"
 width="512.000000pt" height="512.000000pt" viewBox="0 0 512.000000 512.000000"
 preserveAspectRatio="xMidYMid meet">
<metadata>
Created by potrace 1.14, written by Peter Selinger 2001-2017
</metadata>
<g transform="translate(0.000000,512.000000) scale(0.100000,-0.100000)"
fill="#000000" stroke="none">
<path d="M586 4944 c-180 -43 -325 -174 -396 -354 l-25 -65 -3 -1190 c-2 -853
0 -1207 8 -1250 28 -149 145 -309 279 -379 125 -66 129 -66 688 -66 l503 0 0
-503 c0 -546 1 -558 57 -675 39 -82 162 -203 244 -242 138 -64 67 -61 1385
-58 l1199 3 59 23 c166 63 281 176 345 340 l26 67 3 1190 c2 853 0 1207 -8
1250 -38 199 -207 378 -407 430 -47 12 -147 15 -560 15 l-503 0 0 503 c0 547
-1 558 -58 675 -39 81 -159 200 -242 240 -135 65 -66 62 -1360 61 -981 -1
-1185 -3 -1234 -15z m2417 -370 c38 -19 74 -51 90 -79 9 -14 13 -211 17 -700
l5 -680 682 -5 681 -5 38 -30 c20 -17 45 -46 55 -65 18 -33 19 -84 19 -1183 0
-1010 -2 -1152 -15 -1184 -21 -50 -42 -72 -90 -94 -38 -18 -95 -19 -1188 -19
-1038 0 -1151 2 -1180 16 -38 19 -74 51 -90 79 -9 14 -13 211 -17 700 l-5 680
-680 5 c-759 6 -703 0 -762 77 l-28 36 0 1172 0 1171 28 43 c18 27 44 50 70
62 40 18 84 19 1190 19 1038 0 1151 -2 1180 -16z"/>
<path d="M1319 4007 c-95 -40 -148 -89 -200 -187 l-24 -45 0 -460 0 -460 28
-57 c38 -77 96 -134 175 -171 l67 -32 455 -3 456 -3 157 -157 156 -157 3 -455
3 -455 31 -65 c37 -78 95 -140 166 -177 l53 -28 465 0 c465 0 465 0 512 23 74
37 134 96 170 170 l33 67 0 480 0 480 -32 66 c-39 79 -102 140 -181 177 l-57
27 -420 3 c-327 2 -431 -1 -470 -11 l-50 -14 -126 124 -126 124 14 52 c11 41
13 142 11 472 l-3 420 -27 57 c-35 76 -95 138 -170 179 l-63 34 -475 2 -475 3
-56 -23z m891 -697 l0 -360 -375 0 -375 0 0 360 0 360 375 0 375 0 0 -360z
m1460 -1475 l0 -375 -360 0 -360 0 0 375 0 375 360 0 360 0 0 -375z"/>
</g>
</svg>
